<svg viewBox="0 0 100 100" fill="none" xmlns="http://www.w3.org/2000/svg">
<path d="M50 91.6667C73.0119 91.6667 91.6667 73.0119 91.6667 50C91.6667 26.9881 73.0119 8.33334 50 8.33334C26.9881 8.33334 8.33333 26.9881 8.33333 50C8.33333 73.0119 26.9881 91.6667 50 91.6667Z" fill="#CCCCCC" fill-opacity="0.8" stroke="black" stroke-width="0.008"/>
<path d="M67.3552 37.7036C67.3087 38 67.2558 38.3033 67.1962 38.6148C65.1467 49.1377 58.1346 52.7729 49.1792 52.7729H44.6194C43.5242 52.7729 42.6012 53.5681 42.4306 54.6486L40.096 69.4544L39.435 73.6515C39.324 74.3604 39.8706 75 40.5865 75H48.6737C49.6314 75 50.445 74.3042 50.5958 73.3598L50.6752 72.9488L52.1979 63.2858L52.2956 62.7556C52.4448 61.8079 53.26 61.1121 54.2177 61.1121H55.4273C63.2627 61.1121 69.3965 57.9308 71.1892 48.725C71.9381 44.8794 71.5504 41.6683 69.5687 39.41C68.969 38.7292 68.225 38.1642 67.3552 37.7036Z" fill="white" fill-opacity="0.6" stroke="black" stroke-width="0.008"/>
<path d="M65.2102 36.8481C64.8971 36.7571 64.5739 36.6742 64.2425 36.5996C63.9096 36.5267 63.5681 36.4621 63.2169 36.4059C61.9875 36.2069 60.6404 36.1125 59.1973 36.1125H47.0158C46.716 36.1125 46.431 36.1804 46.1758 36.3029C45.6141 36.5731 45.1967 37.105 45.0956 37.7561L42.5042 54.1694L42.4296 54.6481C42.6002 53.5679 43.5231 52.7725 44.6183 52.7725H49.1781C58.1335 52.7725 65.1456 49.1356 67.1952 38.6144C67.2564 38.3029 67.3079 37.9996 67.3542 37.7031C66.8356 37.4281 66.2739 37.1927 65.6691 36.9923C65.52 36.9425 65.366 36.8946 65.2102 36.8481Z" fill="white" fill-opacity="0.8" stroke="black" stroke-width="0.008"/>
<path d="M45.096 37.7565C45.1971 37.1052 45.6146 36.5733 46.1763 36.305C46.4331 36.1823 46.7165 36.1144 47.0163 36.1144H59.1977C60.641 36.1144 61.9879 36.209 63.2175 36.4077C63.5687 36.464 63.91 36.5288 64.2431 36.6015C64.5744 36.676 64.8975 36.759 65.2106 36.85C65.3665 36.8965 65.5204 36.9446 65.6712 36.9925C66.276 37.1931 66.8377 37.43 67.3563 37.7033C67.966 33.8146 67.3515 31.1669 65.2488 28.7694C62.9308 26.13 58.7471 25 53.3938 25H37.8521C36.7585 25 35.8256 25.7952 35.6567 26.8773L29.1831 67.9102C29.0556 68.7221 29.6819 69.4544 30.5004 69.4544H40.0954L42.5046 54.1696L45.096 37.7565Z" fill="white" stroke="black" stroke-width="0.008"/>
</svg>


